<?xml version="1.0" encoding="utf-8"?>
<!-- Generator: Adobe Illustrator 27.2.0, SVG Export Plug-In . SVG Version: 6.00 Build 0)  -->
<svg version="1.1" id="Layer_1" xmlns="http://www.w3.org/2000/svg" xmlns:xlink="http://www.w3.org/1999/xlink" x="0px" y="0px"
	 viewBox="0 0 31 28" style="enable-background:new 0 0 31 28;" xml:space="preserve">
<style type="text/css">
	.st0{fill-rule:evenodd;clip-rule:evenodd;fill:#E0E0E0;}
	.st1{fill:#FFFFFF;}
	.st2{clip-path:url(#SVGID_00000139978013579077973620000017671374382364940931_);}
	.st3{fill:#627EEA;}
	.st4{fill:#C0CCF7;}
	.st5{fill:#8198EE;}
</style>
<path class="st0" d="M14,0c7.7,0,14,6.3,14,14c0,7.7-6.3,14-14,14c-7.7,0-14-6.3-14-14C0,6.3,6.3,0,14,0z"/>
<path d="M14.2,19.8c-4.5,0-8.1-1.3-8.1-3c0-0.9,1-1.7,2.6-2.3c1.2,0.8,3.3,1.2,5.6,1.2c2.3,0,4.3-0.5,5.6-1.3
	c1.5,0.6,2.4,1.4,2.4,2.2C22.3,18.4,18.6,19.8,14.2,19.8z"/>
<path d="M14.2,15.3c-3.4,0-6.1-1.1-6.1-2.4c0-0.7,0.8-1.4,2.2-1.8c0.9,0.5,2.4,0.8,4,0.8s3-0.3,4-0.8c1.3,0.4,2.2,1.1,2.2,1.8
	C20.4,14.2,17.6,15.3,14.2,15.3z"/>
<path d="M14.2,11.5c-2.6,0-4.7-0.9-4.7-2c0-1.1,2.1-2,4.7-2s4.7,0.9,4.7,2C18.9,10.7,16.8,11.5,14.2,11.5z"/>
<circle cx="25.6" cy="7.4" r="5.4"/>
<path class="st1" d="M22.6,9.5l0.6-0.4l0.6-3.9l-0.2-0.7L25,5.8l0.8,3l0.7-3.5h1.8l-0.6,0.4l0.6,3.4l0.6,0.4h-2.2l0.6-0.4l-0.6-3.6
	l-0.7,4h-1l-0.9-3.6l-0.5,3.2L24,9.5H22.6z"/>
<g>
	<defs>
		<rect id="SVGID_1_" x="20.3" y="15.2" width="10.7" height="10.7"/>
	</defs>
	<clipPath id="SVGID_00000075876043774276963250000001590043586734512822_">
		<use xlink:href="#SVGID_1_"  style="overflow:visible;"/>
	</clipPath>
	<g style="clip-path:url(#SVGID_00000075876043774276963250000001590043586734512822_);">
		<path class="st3" d="M25.6,25.9c3,0,5.4-2.4,5.4-5.4c0-3-2.4-5.4-5.4-5.4c-3,0-5.4,2.4-5.4,5.4C20.3,23.5,22.7,25.9,25.6,25.9z"/>
		<path class="st4" d="M25.7,16.7l-0.1,0.2v5.2l0.1,0.1l2.4-1.4L25.7,16.7z"/>
		<path class="st1" d="M25.7,16.7l-2.4,4l2.4,1.4V16.7z"/>
		<path class="st4" d="M25.7,22.6L25.7,22.6l0,1.9l0,0.1l2.4-3.4L25.7,22.6z"/>
		<path class="st1" d="M25.7,24.6v-2l-2.4-1.4L25.7,24.6z"/>
		<path class="st5" d="M25.7,22.1l2.4-1.4l-2.4-1.1L25.7,22.1L25.7,22.1z"/>
		<path class="st4" d="M23.2,20.7l2.4,1.4v-2.5L23.2,20.7z"/>
	</g>
</g>
</svg>
