<?xml version="1.0" encoding="utf-8"?>
<!-- Generator: Adobe Illustrator 27.2.0, SVG Export Plug-In . SVG Version: 6.00 Build 0)  -->
<svg version="1.1" id="Layer_1" xmlns="http://www.w3.org/2000/svg" xmlns:xlink="http://www.w3.org/1999/xlink" x="0px" y="0px"
	 viewBox="0 0 332 332" style="enable-background:new 0 0 332 332;" xml:space="preserve">
<style type="text/css">
	.st0{fill:#FFFFFF;}
	.st1{fill:none;stroke:#FFFFFF;stroke-width:15;stroke-miterlimit:10;}
</style>
<g>
	<path d="M167,2L167,2c91.1,0,165,73.9,165,165l0,0c0,91.1-73.9,165-165,165l0,0C75.9,332,2,258.1,2,167l0,0C2,75.9,75.9,2,167,2z"
		/>
	<path class="st0" d="M73,237.8l19.5-11.9L109,110.4l-5.5-22.2l42.8,36.6l22.9,90.4l20.6-103.9h53.3L225.7,123l17.6,103l17.6,11.9
		h-66.8l17.6-11.9L195,118l-22.4,119.9h-31.4l-27.5-109.2l-14,97.3l15.6,11.9L73,237.8L73,237.8z"/>
</g>
<circle class="st1" cx="167" cy="167" r="133.5"/>
</svg>
