<?xml version="1.0" encoding="utf-8"?>
<!-- Generator: Adobe Illustrator 27.2.0, SVG Export Plug-In . SVG Version: 6.00 Build 0)  -->
<svg version="1.1" id="Layer_1" xmlns="http://www.w3.org/2000/svg" xmlns:xlink="http://www.w3.org/1999/xlink" x="0px" y="0px"
	 viewBox="0 0 700 700" style="enable-background:new 0 0 700 700;" xml:space="preserve">
<style type="text/css">
	.st0{fill-rule:evenodd;clip-rule:evenodd;fill:#231F20;}
</style>
<path class="st0" d="M383.5,450.8c3.9-1.1,4.7-3.5,2.4-7.4c-22.3-12.9-40-12.5-53.2,1.1c0,3.4,1.2,5.1,3.4,5.3
	C367.7,450.5,383.5,450.8,383.5,450.8L383.5,450.8z"/>
<path class="st0" d="M386.6,406.4c-9.1,8.3-13.6,12.5-13.6,12.5c11,13.9,16.5,20.9,16.5,20.9c0.7-8.2,1-12.3,1-12.3
	c9.6,11.6,19.1,25.3,28.4,41.3C405.5,437.6,394.7,416.8,386.6,406.4L386.6,406.4z"/>
<path class="st0" d="M329.4,409.8c9.1,8.3,13.6,12.5,13.6,12.5c-11,13.9-16.5,20.9-16.5,20.9c-0.7-8.2-1-12.3-1-12.3
	c-9.6,11.6-19.1,25.3-28.4,41.3C310.5,441,321.2,420.2,329.4,409.8L329.4,409.8L329.4,409.8z"/>
<path class="st0" d="M334.4,385.2c-20.6,26.4-32.8,48.8-36.8,67.3c-15.5-19.6-22.7-39.9-21.7-60.9c5.3,11.7,11.8,19.7,19.5,24.1
	c4.8-13.3,11.2-22.6,19-28c-11.7,1.7-20.1,4.8-25.1,9.4c-11.2-17-16.8-25.5-16.8-25.5c14.5-15.5,21.7-23.2,21.7-23.2
	c7,6.9,12.3,11.2,15.8,13c10.2-0.8,15.3-1.1,15.3-1.1c-6.5,6.8-10.6,12.4-12.2,16.7c19.4-9.9,30.8-21.1,34-33.6
	c-0.1-10.5-0.2-15.8-0.2-15.8h24.8c0.3,12.8,0.4,19.2,0.4,19.2c6.4,15.6,15.6,24.8,27.6,27.6c-5.5-7.4-8.7-13.2-9.6-17.4
	c16.1,13.9,27.9,20.5,35.4,19.8c-8.1,13-23.4,16-45.8,9c3.5,10.3,5.3,15.4,5.3,15.4c-17,11-25.5,16.5-25.5,16.5
	c-18.1-11.4-27.2-17.1-27.2-17.1C333.7,390.3,334.4,385.2,334.4,385.2L334.4,385.2L334.4,385.2z"/>
<polygon class="st0" points="353.5,238.2 196,397.3 352.9,206.2 358.5,177.6 333.6,157.8 352.1,110.4 474.8,291.4 356.8,81.3 
	223.8,155.2 257.4,122.7 230.2,78.8 136.6,255.2 234.4,236.5 179.5,230.3 278.7,206.2 118.2,475.1 135.5,408.7 80.9,439.3 
	79.2,568.1 194.1,513.2 129.6,591.1 260.7,535.1 182.3,593.3 229.9,579.3 178.4,629.7 241.7,595 310.6,598.9 321.8,562.5 
	282.6,586.6 311.7,546.8 238.9,433.1 263,397.2 191.8,437.6 353.5,238.2 "/>
<polygon class="st0" points="393,292.5 535.8,452.7 484.6,419.1 338.9,630.6 463.9,519.1 434.2,610.4 567.5,558.3 561.3,589.7 
	621.3,592.5 617.4,548.2 591.6,574.6 608.4,511.8 582.6,530.9 620.2,463.1 457.7,591.4 546.2,484.9 494.1,460.3 575.6,486.3 
	571.7,461.1 393,292.5 "/>
<polygon class="st0" points="459.1,321.3 515.4,391.3 628.3,441.5 527.8,381 459.1,321.3 "/>
</svg>
