<?xml version="1.0" encoding="utf-8"?>
<!-- Generator: Adobe Illustrator 27.2.0, SVG Export Plug-In . SVG Version: 6.00 Build 0)  -->
<svg version="1.1" id="b" xmlns="http://www.w3.org/2000/svg" xmlns:xlink="http://www.w3.org/1999/xlink" x="0px" y="0px"
	 viewBox="0 0 1108 192" style="enable-background:new 0 0 1108 192;" xml:space="preserve">
<style type="text/css">
	.st0{fill-rule:evenodd;clip-rule:evenodd;fill:#231F20;}
	.st1{fill:#231F20;}
</style>
<path class="st0" d="M306.6,128.1c1.3-0.4,1.6-1.2,0.8-2.5c-7.6-4.4-13.6-4.3-18.1,0.4c0,1.2,0.4,1.8,1.1,1.8
	C301.2,127.9,306.6,128,306.6,128.1L306.6,128.1L306.6,128.1z"/>
<path class="st0" d="M307.6,112.9c-3.1,2.8-4.6,4.2-4.6,4.2c3.8,4.7,5.6,7.1,5.6,7.1c0.2-2.8,0.3-4.2,0.3-4.2
	c3.3,3.9,6.5,8.6,9.7,14.1C314.1,123.6,310.4,116.5,307.6,112.9L307.6,112.9L307.6,112.9z"/>
<path class="st0" d="M288.1,114.1c3.1,2.8,4.6,4.2,4.6,4.2c-3.8,4.7-5.6,7.1-5.6,7.1c-0.2-2.8-0.3-4.2-0.3-4.2
	c-3.3,3.9-6.5,8.6-9.7,14.1C281.7,124.7,285.4,117.6,288.1,114.1L288.1,114.1L288.1,114.1z"/>
<path class="st0" d="M289.9,105.7c-7,9-11.2,16.6-12.5,22.9c-5.3-6.7-7.7-13.6-7.4-20.7c1.8,4,4,6.7,6.6,8.2
	c1.6-4.5,3.8-7.7,6.5-9.5c-4,0.6-6.8,1.7-8.5,3.2c-3.8-5.8-5.7-8.7-5.7-8.7c4.9-5.3,7.4-7.9,7.4-7.9c2.4,2.3,4.2,3.8,5.4,4.4
	c3.5-0.3,5.2-0.4,5.2-0.4c-2.2,2.3-3.6,4.2-4.1,5.7c6.6-3.4,10.5-7.2,11.6-11.4c0-3.6-0.1-5.4-0.1-5.4h8.4c0.1,4.4,0.1,6.5,0.1,6.5
	c2.2,5.3,5.3,8.4,9.4,9.4c-1.9-2.5-3-4.5-3.3-5.9c5.5,4.7,9.5,7,12.1,6.7c-2.8,4.4-8,5.4-15.6,3.1c1.2,3.5,1.8,5.2,1.8,5.2
	c-5.8,3.8-8.7,5.6-8.7,5.6c-6.2-3.9-9.2-5.8-9.2-5.8C289.6,107.4,289.9,105.7,289.9,105.7L289.9,105.7L289.9,105.7z"/>
<polygon class="st0" points="296.4,55.7 242.8,109.8 296.2,44.8 298.1,35.1 289.6,28.3 295.9,12.2 337.6,73.8 297.5,2.3 252.2,27.4 
	263.6,16.4 254.4,1.4 222.6,61.5 255.8,55.1 237.1,53 270.9,44.8 216.3,136.3 222.2,113.7 203.6,124.1 203,168 242.1,149.3 
	220.2,175.8 264.8,156.7 238.1,176.6 254.3,171.8 236.8,189 258.3,177.1 281.8,178.5 285.6,166.1 272.2,174.3 282.1,160.7 
	257.4,122 265.5,109.8 241.3,123.5 296.4,55.7 "/>
<polygon class="st0" points="309.8,74.1 358.4,128.7 341,117.2 291.4,189.2 333.9,151.3 323.8,182.4 369.2,164.6 367.1,175.3 
	387.5,176.3 386.2,161.2 377.4,170.2 383.1,148.8 374.4,155.3 387.1,132.2 331.8,175.9 362,139.6 344.2,131.3 372,140.1 
	370.6,131.6 309.8,74.1 "/>
<polygon class="st0" points="332.3,84 351.5,107.8 389.9,124.9 355.7,104.3 332.3,84 "/>
<g>
	<path class="st1" d="M432.8,172.2l13.6-8.3l11.5-80.8L454,67.6L484,93.2l16,63.2l14.4-72.6h37.3l-12.2,8.2l12.3,72l12.3,8.3h-46.7
		l12.3-8.3L518,88.4l-15.7,83.8h-21.9l-19.2-76.3l-9.8,68l10.9,8.3H432.8z"/>
	<path class="st1" d="M567.7,26.6h78.5c16.7,0,29,3.5,37.1,10.6c8.1,7.1,12.2,16.9,12.2,29.5c0,6.8-1.2,12.5-3.7,17.2
		c-2.5,4.7-5.8,8.6-10.1,11.7c-4.3,3.1-9.3,5.3-15,6.8c-5.7,1.4-11.9,2.2-18.5,2.4c3.6,9.3,8.3,18,14.2,26.1
		c5.8,8.1,12,15.1,18.3,20.9c6.4,5.8,12.6,10.3,18.6,13.4c6,3.1,11,4.3,15.1,3.7c-1.1,1.2-2.4,2.2-4,3.2c-1.7,0.7-3.7,1.5-6.1,2.1
		c-2.4,0.7-5.4,1-9,1c-10.1,0.3-19.4-1.4-28.1-5.2c-8.7-3.7-16.5-8.9-23.4-15.4c-6.9-6.5-12.7-14.1-17.4-22.7
		c-4.7-8.6-8.1-17.7-10.2-27.1v79.7l-31.1-24.8V38.1L567.7,26.6z M616.1,98.9h30.1c2.7,0,5.1-1,7.1-2.9c2-1.9,3.7-4.5,5.2-7.5
		c1.4-3.1,2.5-6.5,3.2-10.4c0.7-3.8,1-7.6,1-11.4c0-3.6-0.4-7.3-1.1-11.2c-0.8-3.9-1.8-7.5-3.1-10.8c-1.4-3.3-3-6.1-5.1-8.3
		c-2-2.2-4.4-3.6-7.1-4.1h-30.1V98.9z"/>
	<path class="st1" d="M784.4,26l-17.3,11.7v128.7h14.8c2.5-0.1,5.3-0.7,8.3-1.6c3-0.9,6-2.2,8.9-3.9c2.9-1.7,5.7-3.9,8.2-6.5
		c2.5-2.6,4.6-5.6,6.3-8.9v26.8h-94.7l17.1-11.5V37.7L718.7,26H784.4z"/>
	<path class="st1" d="M818.2,26.2H871l43.4,119.3V37.7l-17.3-11.5H939l-17.3,11.5v127.6l7,18.7l-37.8-22.3l-48.2-126v125.1
		l17.3,11.7h-41.8l17.3-11.7V37.7L818.2,26.2z"/>
</g>
</svg>
