<?xml version="1.0" encoding="UTF-8"?><svg id="b" xmlns="http://www.w3.org/2000/svg" viewBox="0 0 1108 192"><path d="m213.58,128.05c1.34-.36,1.61-1.21.81-2.53-7.59-4.39-13.63-4.26-18.12.38.01,1.15.4,1.75,1.14,1.81,10.78.22,16.16.33,16.16.33h0Z" style="fill:#231f20; fill-rule:evenodd;"/><path d="m214.62,112.94c-3.08,2.83-4.62,4.24-4.62,4.24,3.75,4.74,5.63,7.11,5.63,7.11.22-2.8.33-4.2.33-4.2,3.28,3.94,6.5,8.62,9.68,14.07-4.58-10.6-8.25-17.67-11.02-21.22h0Z" style="fill:#231f20; fill-rule:evenodd;"/><path d="m195.15,114.09c3.08,2.83,4.62,4.24,4.62,4.24-3.75,4.74-5.63,7.11-5.63,7.11-.22-2.8-.33-4.2-.33-4.2-3.28,3.94-6.5,8.62-9.68,14.07,4.58-10.6,8.25-17.68,11.02-21.22h0Z" style="fill:#231f20; fill-rule:evenodd;"/><path d="m196.86,105.72c-7.01,8.99-11.18,16.62-12.51,22.9-5.26-6.69-7.73-13.6-7.39-20.74,1.8,3.99,4.01,6.72,6.63,8.2,1.65-4.51,3.81-7.69,6.48-9.53-3.98.59-6.83,1.65-8.53,3.19-3.82-5.79-5.72-8.68-5.72-8.68,4.93-5.28,7.39-7.91,7.39-7.91,2.38,2.35,4.18,3.83,5.39,4.43,3.46-.26,5.2-.38,5.2-.38-2.21,2.33-3.59,4.22-4.15,5.67,6.61-3.36,10.47-7.18,11.59-11.44-.05-3.58-.07-5.36-.07-5.36h8.44c.1,4.36.14,6.53.14,6.53,2.18,5.31,5.31,8.44,9.38,9.38-1.89-2.52-2.97-4.49-3.27-5.91,5.47,4.74,9.49,6.98,12.06,6.72-2.76,4.42-7.96,5.44-15.61,3.07,1.21,3.5,1.81,5.24,1.81,5.24-5.79,3.75-8.68,5.63-8.68,5.63-6.17-3.88-9.25-5.82-9.25-5.82.45-3.46.67-5.2.67-5.2h0Z" style="fill:#231f20; fill-rule:evenodd;"/><polygon points="203.36 55.66 149.77 109.82 203.17 44.79 205.07 35.06 196.59 28.29 202.88 12.18 244.64 73.78 204.5 2.26 159.2 27.43 170.64 16.37 161.4 1.4 129.55 61.47 162.82 55.08 144.14 52.98 177.89 44.78 123.26 136.32 129.17 113.72 110.57 124.11 110 167.98 149.1 149.29 127.16 175.8 171.79 156.72 145.09 176.56 161.3 171.79 143.76 188.96 165.31 177.13 188.76 178.47 192.58 166.07 179.23 174.27 189.15 160.73 164.35 122.02 172.55 109.81 148.33 123.54 203.36 55.66 203.36 55.66" style="fill:#231f20; fill-rule:evenodd;"/><polygon points="216.8 74.14 265.43 128.69 247.98 117.25 198.4 189.24 240.93 151.29 230.82 182.37 276.21 164.64 274.11 175.32 294.52 176.27 293.18 161.21 284.41 170.17 290.13 148.81 281.36 155.29 294.14 132.22 238.83 175.89 268.97 139.65 251.23 131.26 278.98 140.13 277.65 131.55 216.8 74.14 216.8 74.14" style="fill:#231f20; fill-rule:evenodd;"/><polygon points="239.32 83.96 258.49 107.8 296.91 124.87 262.68 104.27 239.32 83.96 239.32 83.96" style="fill:#231f20; fill-rule:evenodd;"/><g><path d="m341.71,160.77l16.5-120.34-15.18-11.22h49.72l23.1,118.8,16.5-118.8h51.26l-16.72,11.22,19.8,120.34,16.94,11.44h-64.24l16.94-11.44-18.7-124.3-18.92,135.74h-30.14l-22.88-132.44-16.94,121,14.96,11.44h-40.7l18.7-11.44Z" style="fill:#231f20;"/><path d="m508.25,50.55h92.84v23.76c-7.26-10.78-20.24-17.16-31.02-18.04h-14.52v48.84h.44c9.68-.44,24.64-7.26,31.02-20.24v44.22c-7.48-10.78-20.46-17.16-31.02-18.04h-.44v55.44h14.52c9.68-.44,24.64-7.26,31.02-20.46v26.18h-92.62l16.72-11.22V61.99l-16.94-11.44Z" style="fill:#231f20;"/><path d="m671.49,50.33c26.62,0,50.16,11.88,50.16,36.08,0,20.9-17.38,34.1-39.16,37.4,16.28,27.28,36.74,46.2,49.5,44.22,0,0-4.4,5.94-18.7,6.16-29.26.88-50.82-25.08-60.28-46.86v55.88l-30.36-24.42-.22-97.02-16.72-11.44h65.78Zm0,68.64h-.66c11.66,0,19.14-12.98,18.7-32.56-.22-14.08-5.94-30.36-20.24-30.36h-16.28v62.92h18.48Z" style="fill:#231f20;"/><path d="m736.61,50.55h64.24l-16.94,11.44v104.5h14.52c9.68-.44,24.64-7.26,31.02-20.46v26.18h-92.62l16.72-11.22V61.99l-16.94-11.44Z" style="fill:#231f20;"/><path d="m810.75,113.03v-23.76l29.92-19.36c0-.88-.22-1.54-.22-2.42,0-9.24,7.48-16.72,16.72-16.72s16.72,7.48,16.72,16.72-7.48,16.72-16.72,16.72c-6.6,0-12.32-3.96-14.96-9.46l-22.44,14.52h53.9v99.44l-30.36-23.1v-70.62h-1.54c-10.56.88-23.54,7.26-31.02,18.04Z" style="fill:#231f20;"/><path d="m878.95,172.21l16.94-11.44V50.33l-6.82-16.5,36.96,21.78,45.1,104.06V61.99l-16.94-11.44h40.92l-16.94,11.44v98.78l16.94,11.44h-49.72l-42.46-104.72v93.28l16.72,11.44h-40.7Z" style="fill:#231f20;"/></g></svg>