<?xml version="1.0" encoding="UTF-8"?><svg id="a" xmlns="http://www.w3.org/2000/svg" viewBox="0 0 659.09 186.16"><g><g><path d="m250.07,16.56c2.06.55,3.44,2.85,3.67,4.23.23-1.38,1.6-3.68,3.67-4.23-2.06-.55-3.44-2.85-3.67-4.23-.23,1.38-1.6,3.68-3.67,4.23Z" style="fill:#231f20;"/><path d="m242.84,3.15c1.54.41,2.57,2.13,2.74,3.15.17-1.03,1.2-2.75,2.74-3.15-1.54-.41-2.57-2.13-2.74-3.15-.17,1.03-1.2,2.75-2.74,3.15Z" style="fill:#231f20;"/><path d="m236.41,10.05c1.11.3,1.85,1.54,1.98,2.28.12-.74.86-1.98,1.98-2.28-1.11-.3-1.85-1.54-1.98-2.28-.12.74-.86,1.98-1.98,2.28Z" style="fill:#231f20;"/></g><path d="m87.24,153.45c12.3,7.72,27.2,11.2,41.48,9.3,7.13-.86,14.1-2.91,20.52-6.1,1.56-.87,3.16-1.69,4.68-2.62,1.47-1.02,3.04-1.89,4.43-3.02l4.2-3.33,3.84-3.73c9.81-10.36,16.04-24.02,17.16-38.24,1.09-14.22-2.95-28.65-11.08-40.31-8.19-11.62-20.36-20.35-34.09-24.2-13.75-3.82-28.71-2.63-41.8,3.04l-4.82,2.33-4.57,2.81c-1.53.92-2.89,2.1-4.35,3.13-1.39,1.12-2.71,2.33-4.06,3.51-5.19,4.94-9.51,10.79-12.75,17.2-6.67,12.76-8.5,27.95-5.45,42.15-3.51-14.09-2.21-29.51,4.18-42.78,3.17-6.63,7.51-12.71,12.75-17.89,1.37-1.23,2.71-2.51,4.12-3.69,1.48-1.1,2.87-2.33,4.43-3.31l4.67-2.99,4.95-2.51c13.45-6.22,29.09-7.41,43.42-3.56,14.34,3.92,27.15,12.96,35.77,25.08,8.44,12.25,12.56,27.38,11.33,42.19-1.27,14.79-7.75,29.07-18.19,39.58l-4.05,3.79-4.4,3.36c-1.46,1.13-3.09,2.01-4.63,3.03-1.59.93-3.25,1.75-4.87,2.61-6.66,3.15-13.86,5.15-21.17,5.86-14.65,1.47-29.59-2.59-41.63-10.7Z" style="fill:#231f20;"/><path d="m0,186.16c20.05-14.63,40.26-29.05,60.48-43.43l60.83-42.93,61.14-42.49,30.68-21.09,30.82-20.89-30.17,21.82-30.31,21.62-60.84,42.92-61.14,42.48c-20.44,14.08-40.89,28.13-61.5,41.98Z" style="fill:#231f20;"/><polygon points="133.83 7.67 145.61 23.7 157.23 39.84 180.22 72.3 202.86 105.01 214.06 121.45 225.09 138 213.31 121.97 201.69 105.83 178.7 73.37 156.06 40.66 144.87 24.22 133.83 7.67" style="fill:#231f20;"/><path d="m133.83,57.53c8.26,1.24,16.52,2.54,24.76,3.91l24.71,4.22,24.66,4.48c8.21,1.53,16.41,3.13,24.6,4.79-8.26-1.24-16.52-2.54-24.76-3.91l-24.71-4.22-24.66-4.49c-8.21-1.53-16.41-3.13-24.61-4.79Z" style="fill:#231f20;"/><path d="m169.15,90.14c.96-6.68,1.98-13.36,3.08-20.01l3.38-19.96,3.65-19.91c1.25-6.63,2.57-13.25,3.96-19.86-.96,6.68-1.98,13.36-3.08,20.02l-3.38,19.96-3.65,19.91c-1.25,6.63-2.57,13.25-3.95,19.86Z" style="fill:#231f20;"/><circle cx="173.66" cy="64.55" r="3.18" style="fill:#231f20;"/><path d="m80.85,48.63c-3.4-1.11-7.18.3-8.84,3.11-1.74,2.75-1.31,6.55.98,8.75,2.2,2.29,5.99,2.72,8.74.98,2.81-1.66,4.22-5.44,3.11-8.84.88,1.55,1.13,3.48.73,5.31-.43,1.82-1.54,3.49-3.09,4.64-1.54,1.17-3.54,1.69-5.49,1.56-1.95-.16-3.84-1.04-5.24-2.42-1.37-1.41-2.26-3.29-2.42-5.24-.13-1.95.4-3.95,1.56-5.49,1.14-1.55,2.81-2.66,4.64-3.09,1.82-.4,3.75-.15,5.31.73Z" style="fill:#231f20;"/></g><g><path d="m259.58,133.92c3.22,0,4.48-.84,4.48-4.76V38.66c0-4.06-1.26-4.76-4.48-4.76h-3.92v-1.4h17.35l41.41,89.81,41.41-89.81h18.33v1.4h-3.78c-3.36,0-4.62.7-4.62,4.76v90.51c0,3.92,1.26,4.76,4.62,4.76h3.78v1.4h-26.86v-1.4h3.92c3.36,0,4.62-.84,4.62-4.76V35.86l-45.89,99.46-44.49-96.67v90.51c0,3.92,1.26,4.76,4.62,4.76h3.92v1.4h-18.33v-1.4h3.92Z"/><path d="m413.18,69.01c12.31,0,22.94,7.41,28.12,18.33-8.25,4.76-16.51,9.51-24.76,14.27-13.57,7.41-19.58,25.6-3.5,33.29,22.24,1.12,36.23-25.46,46.03-41.55v-14.27c0-2.24-.28-3.22-1.26-3.22s-2.8,1.12-5.88,3.08v-1.26c3.64-2.52,7.41-5.04,11.05-7.55l5.32,2.38v6.99c6.29-6.71,16.09-10.49,25.18-10.49,6.02,0,11.61,1.54,15.81,5.04l-7.13,6.99c-2.38-6.44-7.83-9.23-13.85-9.23-6.85,0-14.41,3.5-20,9.51-13.99,19.59-27.84,55.4-54.98,55.4-17.49,0-31.76-15.11-31.76-33.85s14.13-33.85,31.62-33.85Zm-3.36,65.47c-12.59-8.39-8.95-25.6,6.29-33.99l17.63-10.07c-3.36-13.85-12.31-19.73-21.68-19.73-7.27,0-14.97,3.5-20.56,9.37v22.8c0,12.59,3.78,28.54,18.33,31.62Zm42.11-.14c4.9-.14,7.13.7,7.13-4.48v-21.96c2.38-5.74,5.46-11.19,9.09-16.09.14,12.59,0,25.32,0,38.05,0,5.18,2.38,4.34,7.27,4.48v1.12h-23.5v-1.12Z"/><path d="m513.61,134.06c4.9,0,7.27.7,7.27-4.34V36.14c0-2.24-.28-3.36-1.26-3.36-1.12,0-2.94,1.26-6.02,3.08v-1.12c3.64-2.52,7.41-5.04,11.05-7.55l5.32,2.38v100.16c0,5.04,2.24,4.34,7.27,4.34v1.26h-23.64v-1.26Z"/><path d="m548.3,134.06c4.9,0,7.27.7,7.27-4.34v-49.52c0-2.24-.28-3.22-1.26-3.22s-2.8,1.12-6.02,3.08v-1.26c3.64-2.52,7.41-5.04,11.05-7.55l5.32,2.38v56.1c0,5.04,2.24,4.34,7.13,4.34v1.26h-23.5v-1.26Zm11.05-83.94c3.64,0,6.71,2.94,6.71,6.71s-3.08,6.71-6.71,6.71-6.71-3.08-6.71-6.71,2.94-6.71,6.71-6.71Z"/><path d="m590.27,129.73v-50.78c0-2.24-.28-3.36-1.26-3.36-1.12,0-2.94,1.26-6.02,3.08v-1.12c3.64-2.52,7.41-5.04,11.05-7.55l5.32,2.38v6.99c6.29-6.85,16.23-10.63,25.32-10.63,11.75,0,22.24,6.29,22.24,20.56v40.43c0,5.04,2.24,4.34,7.27,4.34v1.26h-23.64v-1.26c4.9,0,7.27.7,7.27-4.34v-42.53c0-11.89-6.99-16.79-15.53-16.79-7.83,0-16.79,4.2-22.94,10.77v48.54c0,5.04,2.24,4.34,7.13,4.34v1.26h-23.5v-1.26c4.9,0,7.27.7,7.27-4.34Z"/></g></svg>