<?xml version="1.0" encoding="UTF-8"?><svg id="a" xmlns="http://www.w3.org/2000/svg" viewBox="0 0 1000 1004.95"><path d="m554.14,677.61c7.17-1.95,8.62-6.46,4.34-13.51-40.61-23.47-72.91-22.79-96.93,2.04.08,6.13,2.11,9.36,6.11,9.69,57.65,1.19,86.48,1.78,86.48,1.78h0Z" style="fill:#231f20; fill-rule:evenodd;"/><path d="m559.75,596.75c-16.5,15.13-24.74,22.7-24.74,22.7,20.07,25.34,30.1,38.01,30.1,38.01,1.19-14.97,1.78-22.45,1.78-22.45,17.53,21.06,34.79,46.14,51.79,75.25-24.5-56.72-44.15-94.56-58.93-113.51h0Z" style="fill:#231f20; fill-rule:evenodd;"/><path d="m455.55,602.92c16.5,15.13,24.74,22.7,24.74,22.7-20.07,25.34-30.1,38.01-30.1,38.01-1.19-14.97-1.78-22.45-1.78-22.45-17.53,21.05-34.79,46.14-51.79,75.25,24.5-56.73,44.15-94.56,58.93-113.51h0Z" style="fill:#231f20; fill-rule:evenodd;"/><path d="m464.71,558.12c-37.48,48.07-59.79,88.92-66.94,122.54-28.14-35.77-41.33-72.75-39.54-110.96,9.64,21.34,21.47,35.95,35.47,43.88,8.83-24.16,20.38-41.15,34.68-51.01-21.32,3.14-36.54,8.82-45.65,17.09-20.42-30.97-30.62-46.45-30.62-46.45,26.35-28.23,39.53-42.34,39.53-42.34,12.75,12.57,22.36,20.48,28.83,23.72,18.53-1.37,27.8-2.05,27.8-2.05-11.82,12.46-19.22,22.58-22.2,30.36,35.37-17.99,56.03-38.4,61.99-61.22-.25-19.13-.38-28.69-.38-28.69h45.15c.51,23.3.76,34.95.76,34.95,11.66,28.43,28.4,45.16,50.2,50.18-10.09-13.5-15.91-24.04-17.47-31.64,29.26,25.33,50.77,37.33,64.53,35.97-14.75,23.65-42.57,29.13-83.49,16.45,6.45,18.7,9.69,28.06,9.69,28.06-30.95,20.07-46.42,30.1-46.42,30.1-32.99-20.75-49.49-31.13-49.49-31.13,2.38-18.53,3.57-27.8,3.57-27.8h0Z" style="fill:#231f20; fill-rule:evenodd;"/><polygon points="499.47 290.29 212.76 580.06 498.45 232.13 508.65 180.09 463.24 143.88 496.91 57.66 720.34 387.23 505.55 4.59 263.24 139.27 324.45 80.09 274.97 0 104.57 321.37 282.62 287.19 182.63 275.97 363.22 232.1 70.92 721.82 102.55 600.92 3.06 656.53 0 891.19 209.16 791.21 91.83 933.02 330.58 831 187.74 937.11 274.46 911.6 180.6 1003.43 295.89 940.17 421.39 947.31 441.79 880.99 370.37 924.87 423.43 852.42 290.79 645.3 334.66 580 205.08 653.46 499.47 290.29 499.47 290.29" style="fill:#231f20; fill-rule:evenodd;"/><polygon points="571.39 389.19 831.57 681 738.21 619.78 472.96 1004.95 700.49 801.91 646.41 968.22 889.24 873.33 878.02 930.46 987.19 935.57 980.05 854.97 933.12 902.92 963.73 788.65 916.79 823.34 985.16 699.88 689.27 933.53 850.47 739.67 755.59 694.78 904.04 742.22 896.93 696.29 571.39 389.19 571.39 389.19" style="fill:#231f20; fill-rule:evenodd;"/><polygon points="691.86 441.72 794.41 569.27 1000 660.56 816.86 550.37 691.86 441.72 691.86 441.72" style="fill:#231f20; fill-rule:evenodd;"/></svg>