<?xml version="1.0" standalone="no"?>
<!DOCTYPE svg PUBLIC "-//W3C//DTD SVG 20010904//EN"
 "http://www.w3.org/TR/2001/REC-SVG-20010904/DTD/svg10.dtd">
<svg version="1.0" xmlns="http://www.w3.org/2000/svg"
 width="1005.000000pt" height="1005.000000pt" viewBox="0 0 1005.000000 1005.000000"
 preserveAspectRatio="xMidYMid meet">
<metadata>
Created by potrace 1.14, written by Peter Selinger 2001-2017
</metadata>
<g transform="translate(0.000000,1005.000000) scale(0.100000,-0.100000)"
fill="#000000" stroke="none">
<path d="M2760 10027 c-8 -12 -26 -44 -40 -72 -14 -27 -27 -52 -30 -55 -3 -3
-18 -32 -35 -65 -16 -32 -52 -100 -78 -150 -104 -193 -161 -302 -180 -340 -11
-22 -23 -41 -28 -43 -5 -2 -9 -11 -9 -21 0 -9 -8 -28 -17 -41 -10 -14 -29 -47
-44 -75 -53 -102 -153 -292 -190 -362 -79 -148 -117 -220 -169 -318 -29 -55
-57 -106 -63 -112 -5 -7 -6 -13 -1 -13 5 0 4 -4 -1 -8 -6 -4 -26 -36 -44 -72
-19 -36 -51 -96 -71 -135 -21 -38 -54 -101 -75 -140 -20 -38 -41 -76 -47 -82
-6 -7 -7 -13 -3 -13 4 0 2 -6 -4 -14 -7 -8 -29 -47 -50 -87 -21 -41 -48 -90
-59 -111 -11 -20 -18 -39 -15 -42 4 -3 2 -6 -4 -6 -6 0 -18 -17 -28 -37 -9
-21 -38 -78 -64 -128 -27 -49 -63 -117 -80 -150 -18 -33 -59 -109 -91 -170
-33 -60 -76 -141 -96 -180 -19 -38 -44 -85 -55 -104 -11 -18 -18 -36 -15 -38
2 -3 28 0 58 6 72 14 108 21 138 26 14 2 61 11 105 20 44 10 89 18 100 20 19
3 50 8 105 20 14 3 39 7 55 10 17 3 41 8 55 10 72 15 91 18 158 30 15 2 52 10
82 16 30 6 64 12 75 14 11 2 31 7 45 10 14 3 43 8 65 11 22 3 56 10 75 14 19
5 49 11 65 14 17 3 55 10 85 16 30 6 66 13 80 16 14 2 45 9 70 14 25 6 59 12
75 14 17 2 66 12 110 21 76 16 94 19 140 25 31 3 -40 18 -125 25 -41 4 -84 9
-95 11 -10 2 -51 6 -90 10 -38 3 -73 8 -77 10 -6 4 -125 15 -185 18 -18 0 -33
3 -33 6 0 3 -17 6 -38 7 -49 2 -147 11 -147 14 0 1 -18 2 -41 3 -22 2 -45 5
-50 8 -5 3 -21 5 -36 3 -16 -2 -28 0 -28 5 0 8 115 36 138 34 6 -1 12 1 12 5
0 4 6 8 13 8 6 0 71 15 142 32 72 18 138 33 148 34 9 1 17 5 17 10 0 4 4 6 8
3 5 -3 26 -1 47 5 20 6 45 12 54 14 9 2 63 16 121 30 58 15 112 28 121 30 8 2
44 10 80 19 35 9 74 18 87 21 12 3 30 7 40 10 37 10 268 66 292 71 14 2 49 12
79 20 29 8 60 13 67 10 8 -3 14 -2 14 3 0 5 17 12 38 16 51 11 49 11 125 30
37 9 74 18 82 19 8 1 17 5 21 8 3 4 12 4 20 1 10 -4 7 -15 -16 -48 -17 -24
-30 -48 -30 -53 0 -6 -3 -12 -7 -14 -9 -3 -30 -39 -64 -105 -12 -24 -25 -43
-30 -43 -5 0 -9 -5 -9 -11 0 -10 -166 -293 -216 -370 -13 -19 -24 -40 -24 -46
0 -6 -4 -13 -8 -15 -4 -1 -33 -46 -63 -98 -31 -52 -147 -248 -259 -435 -112
-187 -208 -349 -214 -360 -6 -11 -21 -34 -33 -52 -13 -17 -23 -34 -23 -39 0
-6 -19 -38 -78 -129 -7 -11 -15 -28 -18 -37 -4 -10 -10 -18 -15 -18 -5 0 -9
-5 -9 -10 0 -6 -12 -29 -27 -53 -15 -23 -32 -51 -38 -62 -19 -34 -79 -136 -97
-163 -10 -15 -21 -34 -25 -42 -3 -8 -21 -39 -40 -68 -18 -29 -33 -57 -33 -62
0 -6 -4 -10 -10 -10 -5 0 -10 -4 -10 -10 0 -5 -25 -51 -56 -102 -65 -107 -92
-152 -111 -189 -7 -15 -20 -32 -28 -39 -8 -7 -15 -16 -15 -20 0 -4 -19 -40
-42 -79 -24 -40 -52 -87 -63 -106 -11 -19 -38 -64 -60 -101 -22 -37 -47 -79
-55 -93 -128 -217 -226 -377 -232 -379 -4 -2 -8 -8 -8 -13 0 -5 -34 -65 -75
-134 -41 -68 -75 -129 -75 -134 0 -6 -7 -14 -16 -19 -9 -5 -15 -12 -14 -16 1
-6 -47 -91 -95 -166 -24 -38 -176 -294 -207 -348 -22 -40 -41 -71 -85 -139
-18 -28 -33 -55 -33 -59 0 -4 -11 -22 -25 -40 -14 -18 -25 -36 -25 -40 0 -10
-73 -129 -82 -132 -4 -2 -8 -8 -8 -12 0 -10 -60 -113 -84 -145 -10 -14 -5 14
14 86 16 58 31 117 34 130 2 13 11 45 19 72 8 26 13 47 11 47 -3 0 0 8 5 18 6
11 12 30 15 43 6 31 93 369 111 432 8 26 14 49 15 52 0 3 0 6 1 8 0 1 2 9 4
17 2 8 13 51 26 95 12 44 22 86 22 93 0 6 3 12 6 12 3 0 7 14 8 30 1 17 0 30
-4 30 -10 0 -88 -45 -95 -55 -4 -5 -8 -6 -8 -1 0 5 -6 4 -13 -2 -6 -5 -29 -19
-50 -31 -20 -12 -52 -29 -70 -39 -17 -10 -84 -47 -147 -82 -63 -35 -123 -70
-132 -78 -10 -8 -18 -12 -18 -8 0 4 -17 -5 -37 -19 -21 -14 -43 -25 -50 -25
-7 0 -13 -4 -13 -10 0 -5 -4 -10 -8 -10 -8 0 -84 -41 -197 -106 -33 -18 -79
-44 -103 -56 l-42 -22 -1 -100 c0 -56 -2 -218 -4 -361 -2 -143 -7 -453 -10
-690 -2 -236 -7 -602 -10 -812 -3 -211 -4 -383 -2 -383 2 0 23 10 48 21 24 12
94 45 154 74 61 29 171 82 245 117 74 36 159 75 188 88 28 13 52 27 52 32 0 4
3 7 7 6 13 -3 175 71 184 85 3 5 9 8 13 8 9 -2 123 48 156 68 8 5 60 31 115
57 55 26 151 71 213 101 62 29 117 53 122 53 6 0 10 5 10 12 0 6 3 9 6 6 3 -3
44 13 92 37 121 60 306 149 312 150 3 1 38 18 79 38 41 20 76 37 79 37 5 0
-118 -155 -166 -208 -12 -14 -33 -39 -45 -55 -12 -16 -27 -34 -32 -40 -6 -7
-41 -50 -79 -97 -38 -47 -74 -89 -80 -95 -6 -5 -37 -42 -68 -81 -31 -39 -63
-77 -70 -85 -7 -8 -31 -36 -53 -64 -22 -27 -42 -52 -45 -55 -3 -3 -35 -41 -71
-85 -36 -44 -134 -163 -218 -265 -84 -102 -162 -196 -173 -210 -12 -14 -30
-35 -42 -48 l-21 -23 25 9 c14 6 48 20 75 32 62 27 98 43 105 45 8 3 50 21
113 49 31 14 57 22 57 18 0 -4 4 -2 8 4 4 6 39 23 77 39 39 15 76 32 83 37 6
6 12 8 12 4 0 -4 10 0 22 8 13 8 26 15 31 15 4 0 20 7 36 15 16 9 31 12 35 9
3 -4 6 -1 6 5 0 7 3 11 8 10 4 -1 27 7 52 18 25 10 48 18 52 16 5 -1 8 2 8 6
0 5 29 19 65 31 36 13 65 26 65 30 0 4 6 8 14 8 8 0 29 7 47 15 19 9 62 28 96
42 35 14 87 37 117 51 30 14 57 25 60 25 2 0 33 13 68 28 35 16 99 44 143 62
44 18 84 37 90 42 5 4 15 8 21 8 11 0 62 22 169 70 33 15 79 33 94 36 8 1 17
6 20 11 3 4 11 9 16 10 6 1 111 45 235 98 124 54 232 99 240 102 12 5 -146
-117 -229 -175 -13 -9 -28 -22 -35 -27 -6 -6 -27 -22 -46 -35 -42 -29 -56 -40
-79 -61 -10 -8 -25 -18 -34 -22 -9 -3 -17 -11 -17 -17 0 -5 -5 -10 -11 -10 -6
0 -34 -18 -63 -40 -69 -54 -59 -46 -166 -125 -52 -38 -96 -73 -98 -77 -2 -5
-10 -8 -18 -8 -8 0 -14 -4 -14 -8 0 -4 -18 -19 -40 -32 -22 -14 -40 -28 -40
-32 0 -5 -6 -8 -14 -8 -8 0 -16 -4 -18 -9 -1 -5 -68 -57 -148 -116 -80 -58
-153 -113 -163 -121 -10 -8 -42 -32 -70 -52 -74 -53 -91 -69 -72 -69 8 0 15 5
15 10 0 6 2 8 6 5 3 -3 26 1 52 9 26 8 88 26 137 40 50 14 115 33 145 43 30
10 136 41 235 70 99 28 191 56 204 61 13 5 26 8 29 5 4 -5 -29 -38 -212 -215
-42 -40 -76 -77 -76 -82 0 -5 -3 -9 -8 -9 -4 0 -93 -84 -197 -186 -105 -102
-241 -235 -303 -295 -62 -60 -110 -109 -108 -109 6 0 178 90 191 100 6 4 51
29 100 55 50 26 121 65 158 86 38 22 73 39 77 39 5 0 10 3 12 8 2 4 28 20 58
35 87 45 155 82 160 87 3 3 23 14 45 26 132 68 221 118 226 126 3 6 8 9 10 8
7 -3 79 33 79 40 0 4 42 5 93 3 50 -3 129 -5 174 -6 46 -1 83 -4 83 -7 0 -3
28 -6 63 -6 138 -3 255 -12 267 -19 9 -6 11 -4 5 5 -6 9 -4 11 5 5 12 -8 122
-15 277 -18 40 -1 73 -4 73 -7 0 -3 28 -5 63 -6 34 -1 86 -3 116 -5 l54 -3 19
60 c11 32 21 66 23 74 2 8 8 29 14 45 22 69 93 301 96 317 2 9 9 26 15 37 6
12 9 21 6 21 -2 0 4 23 14 50 l19 51 -22 -7 c-12 -4 -24 -9 -27 -13 -7 -8 -39
-28 -70 -44 -14 -6 -29 -15 -35 -20 -5 -4 -32 -22 -60 -39 -27 -17 -74 -46
-102 -64 -29 -19 -56 -34 -61 -34 -5 0 -18 -9 -30 -20 -12 -12 -22 -18 -22
-15 0 4 -15 -4 -33 -17 -43 -31 -187 -118 -194 -118 -4 0 -15 -7 -25 -17 -38
-34 -16 6 56 103 41 54 82 108 91 119 9 11 16 23 16 28 -1 4 7 15 17 25 9 10
27 31 39 48 11 16 44 60 72 97 28 37 51 70 51 72 0 3 29 43 65 89 36 46 65 89
65 95 0 6 5 11 10 11 21 0 6 29 -102 197 -147 227 -147 226 -155 243 -12 26
-67 105 -77 112 -6 4 -7 8 -3 8 4 0 3 6 -3 12 -6 7 -29 42 -52 78 -50 78 -114
179 -154 239 -59 90 -75 116 -81 134 -3 9 -8 17 -12 17 -3 0 -17 20 -31 45
-14 25 -28 45 -32 45 -5 0 -8 4 -8 10 0 5 -22 43 -50 83 -27 41 -55 86 -61
101 -7 14 -16 26 -21 26 -4 0 -8 7 -8 15 0 8 -4 15 -10 15 -5 0 -10 6 -10 13
0 7 -9 23 -20 35 -11 12 -20 24 -20 27 0 4 -14 26 -30 50 -17 24 -30 48 -30
54 0 6 -3 11 -7 11 -5 0 -24 27 -42 60 -19 33 -39 60 -43 60 -4 0 -8 5 -8 11
0 6 -13 30 -30 54 -16 24 -30 46 -30 48 0 5 -81 129 -90 137 -3 3 -11 16 -19
30 -8 14 -28 46 -44 72 l-29 46 106 157 c58 87 106 161 106 165 0 5 4 10 9 12
4 2 50 66 100 143 51 77 97 143 103 146 6 4 6 9 1 12 -5 3 -74 -32 -153 -78
-80 -47 -150 -85 -157 -85 -6 0 -13 -4 -15 -8 -1 -5 -34 -26 -73 -47 -127 -69
-180 -99 -185 -104 -3 -4 -23 -15 -45 -26 -22 -11 -68 -37 -102 -58 -35 -20
-65 -37 -69 -37 -3 0 -18 -8 -32 -18 -15 -11 -56 -35 -92 -54 -36 -20 -103
-58 -150 -84 -47 -27 -106 -60 -132 -74 -27 -14 -48 -29 -48 -33 0 -5 -5 -5
-11 -1 -6 3 -7 9 -2 13 5 3 49 56 98 116 49 61 94 113 100 117 5 4 6 8 1 8 -6
0 -3 6 5 12 12 10 113 132 152 183 14 18 48 60 73 87 13 15 39 47 57 70 18 24
40 52 49 63 10 11 81 99 158 195 176 218 180 223 280 345 45 55 93 115 108
134 52 64 94 116 110 136 16 18 248 305 361 445 24 30 48 57 52 58 5 2 9 8 9
13 0 8 15 27 60 74 11 12 20 26 20 33 0 7 4 12 8 12 4 0 26 24 47 52 22 29 49
62 60 74 11 11 29 33 40 48 11 16 27 36 35 45 9 9 33 39 55 66 22 28 44 55 50
62 5 7 15 18 20 25 134 166 217 267 233 284 6 7 12 16 12 20 0 3 8 14 18 23
10 9 31 34 47 56 17 22 32 42 35 45 3 3 35 41 70 85 36 44 69 85 75 91 5 7 24
29 40 49 46 58 93 116 125 155 34 42 82 101 93 115 4 6 21 26 37 45 16 19 44
55 62 80 29 41 -115 -103 -1067 -1065 -170 -172 -573 -579 -894 -903 -321
-325 -587 -596 -592 -603 -5 -8 -9 -9 -9 -4 0 6 -4 4 -9 -3 -11 -18 -159 -170
-174 -179 -10 -6 63 87 83 107 3 3 21 25 41 50 20 25 46 56 58 70 11 14 24 30
28 35 36 45 91 112 103 125 8 9 29 33 45 54 50 63 79 99 95 116 8 9 28 33 45
55 16 22 36 46 45 55 8 9 51 61 94 115 44 55 87 108 97 117 10 10 30 34 46 55
15 21 33 43 38 49 6 6 26 30 45 54 19 23 42 50 50 60 8 10 29 35 45 56 27 34
228 280 256 313 7 7 44 52 82 100 39 47 73 88 76 91 4 3 22 25 41 50 19 25 37
47 40 50 3 3 25 30 50 60 25 30 52 64 62 75 100 122 138 168 166 203 19 22 41
50 50 61 10 11 31 36 47 57 17 20 35 42 40 48 6 6 27 32 48 58 21 26 43 53 50
60 7 7 25 31 42 53 16 22 41 52 55 67 14 15 34 39 45 54 11 15 27 35 35 43 9
9 33 39 55 66 22 28 42 52 45 55 3 3 24 28 45 55 22 28 42 52 45 55 3 3 23 28
45 55 21 28 42 52 45 55 3 3 35 41 70 85 35 44 67 82 71 85 3 3 19 24 36 47
17 23 33 39 37 36 3 -3 6 -1 6 5 0 11 24 44 63 84 9 10 17 20 17 23 0 3 14 20
31 38 36 37 56 73 64 113 3 16 7 43 10 59 7 39 74 375 79 397 3 15 -14 31
-144 134 -8 7 -78 63 -155 124 -77 61 -142 118 -143 126 -2 8 0 23 4 32 4 9 8
20 9 25 2 4 4 10 5 15 1 4 2 10 1 15 0 4 3 7 9 7 5 0 10 6 10 13 0 8 18 58 40
112 22 54 40 104 40 112 0 7 5 13 10 13 6 0 9 3 8 8 -2 9 9 46 28 87 7 17 40
100 73 186 33 86 66 173 75 193 l16 38 43 -64 c24 -34 106 -155 182 -268 76
-113 142 -206 147 -208 4 -2 8 -8 8 -13 0 -9 144 -225 197 -295 13 -17 23 -34
23 -38 0 -4 8 -16 18 -27 11 -10 25 -32 33 -47 8 -15 17 -29 20 -32 3 -3 48
-68 99 -145 52 -77 98 -141 102 -143 4 -2 8 -10 8 -18 0 -8 5 -14 10 -14 6 0
10 -5 10 -11 0 -11 48 -79 65 -91 7 -5 7 -8 0 -8 -7 0 -7 -3 0 -8 15 -11 95
-129 95 -140 0 -6 4 -12 8 -14 7 -3 240 -339 267 -386 6 -9 12 -19 16 -22 3
-3 70 -102 149 -220 79 -118 156 -231 172 -251 15 -20 28 -41 28 -46 0 -5 13
-24 30 -43 16 -19 29 -40 30 -47 0 -6 3 -13 8 -15 8 -4 52 -65 52 -73 0 -8 63
-89 73 -93 4 -2 7 -9 7 -16 0 -7 9 -23 20 -36 11 -13 20 -29 20 -36 0 -7 6
-17 13 -21 7 -4 30 -36 52 -70 22 -35 43 -63 48 -63 4 0 7 -5 7 -10 0 -11 34
-63 58 -88 6 -7 12 -17 12 -22 0 -5 6 -15 14 -23 8 -8 24 -29 35 -48 12 -19
21 -29 21 -24 0 6 -6 19 -14 30 -7 11 -26 43 -41 70 -16 28 -39 68 -52 90 -13
22 -26 48 -30 58 -3 9 -9 17 -13 17 -4 0 -11 12 -15 27 -3 15 -10 30 -14 33
-4 3 -29 46 -56 95 -26 50 -56 102 -66 117 -11 14 -19 29 -19 32 0 3 -22 44
-50 92 -27 48 -50 90 -50 94 0 4 -7 13 -15 20 -9 7 -13 15 -11 18 3 3 -3 17
-13 31 -23 35 -103 175 -190 336 -9 17 -18 32 -21 35 -3 3 -12 19 -20 35 -8
17 -17 32 -20 35 -3 3 -13 21 -22 40 -25 51 -72 134 -79 140 -4 3 -9 15 -13
27 -4 13 -13 29 -19 35 -7 7 -23 36 -36 63 -14 28 -27 52 -31 55 -3 3 -24 39
-46 80 -50 92 -68 124 -74 130 -3 3 -13 21 -22 40 -21 43 -71 133 -78 140 -3
3 -13 21 -24 40 -41 78 -89 166 -96 175 -4 6 -22 37 -40 70 -18 33 -42 76 -53
95 -11 19 -31 55 -45 80 -13 25 -32 59 -42 75 -10 17 -29 50 -42 75 -14 25
-65 117 -115 205 -49 88 -105 186 -122 219 -41 73 -88 156 -101 176 -5 8 -20
35 -32 60 -13 25 -25 47 -28 50 -3 3 -12 19 -20 35 -8 17 -22 41 -31 55 -9 14
-29 50 -46 80 -104 191 -144 260 -149 260 -7 0 -116 -59 -131 -71 -7 -6 -13
-8 -13 -3 0 5 -4 4 -8 -2 -4 -6 -43 -30 -87 -54 -44 -23 -84 -46 -90 -50 -5
-4 -41 -24 -80 -45 -131 -70 -200 -108 -237 -132 -21 -13 -40 -23 -42 -23 -3
0 -49 -25 -103 -55 -54 -31 -106 -60 -115 -65 -10 -6 -28 -16 -40 -22 -13 -7
-26 -17 -30 -23 -4 -5 -8 -6 -8 -2 0 5 -12 0 -27 -10 -16 -10 -46 -28 -68 -38
-22 -11 -42 -22 -45 -25 -3 -3 -30 -18 -60 -34 -30 -16 -62 -35 -71 -42 -8 -8
-19 -14 -24 -14 -7 0 -55 -27 -235 -130 -30 -17 -67 -36 -82 -43 -16 -6 -28
-15 -28 -19 0 -4 -9 -8 -19 -8 -11 0 -21 -4 -23 -8 -3 -8 -112 -70 -193 -110
-16 -9 -32 -18 -35 -21 -3 -3 -27 -17 -55 -31 -27 -14 -57 -30 -65 -36 -8 -6
-55 -33 -104 -59 -49 -26 -111 -60 -138 -76 -27 -16 -51 -29 -54 -29 -2 0 -22
-11 -44 -25 -22 -14 -40 -22 -40 -17 0 4 62 67 138 140 75 72 207 198 292 281
l154 149 -47 77 c-26 43 -47 81 -47 86 0 5 -4 9 -10 9 -5 0 -10 7 -10 15 0 8
-4 15 -10 15 -5 0 -10 5 -10 10 0 6 -15 34 -34 63 -57 88 -240 384 -257 416
-9 16 -24 42 -35 58 -10 15 -21 33 -24 40 -3 7 -11 3 -20 -10z"/>
<path d="M5790 6095 c14 -16 44 -50 67 -75 23 -25 50 -54 60 -66 37 -44 149
-169 178 -200 17 -17 49 -54 71 -80 23 -27 52 -61 65 -75 26 -28 132 -147 164
-183 11 -12 52 -58 91 -102 39 -43 82 -92 95 -107 13 -15 43 -48 67 -72 24
-25 41 -45 39 -45 -3 0 12 -17 32 -38 20 -21 65 -71 101 -112 36 -40 74 -84
85 -96 11 -12 47 -52 80 -90 33 -37 83 -92 110 -122 28 -30 58 -64 68 -76 39
-46 133 -151 160 -178 15 -15 26 -28 23 -28 -2 0 17 -22 42 -49 26 -27 69 -74
95 -104 26 -31 58 -66 70 -79 12 -13 49 -55 82 -93 33 -37 71 -80 85 -95 14
-15 52 -58 85 -95 118 -135 152 -172 233 -260 10 -11 52 -58 93 -105 113 -129
132 -150 162 -182 28 -31 36 -47 15 -31 -7 6 -40 27 -73 49 -33 21 -61 42 -63
46 -2 5 -8 8 -13 8 -11 0 -72 42 -77 53 -2 4 -8 7 -13 7 -7 0 -168 103 -299
191 -182 122 -364 238 -370 234 -6 -4 -82 -112 -120 -171 -8 -12 -28 -42 -45
-66 -16 -23 -63 -90 -102 -148 -40 -58 -76 -109 -80 -115 -5 -5 -31 -44 -58
-85 -28 -41 -58 -83 -67 -94 -10 -11 -18 -23 -18 -27 0 -4 -7 -14 -15 -22 -8
-8 -22 -29 -32 -45 -10 -17 -117 -174 -237 -349 -121 -175 -234 -338 -250
-363 -17 -25 -34 -46 -38 -48 -5 -2 -8 -8 -8 -13 0 -6 -15 -30 -32 -53 -18
-24 -39 -52 -45 -62 -7 -11 -32 -46 -54 -79 -23 -33 -85 -123 -137 -200 -53
-77 -100 -141 -104 -143 -4 -2 -8 -8 -8 -12 0 -11 -92 -144 -102 -148 -4 -2
-8 -8 -8 -13 0 -6 -18 -34 -40 -64 -22 -30 -40 -59 -40 -65 0 -5 -4 -10 -8
-10 -4 0 -16 -15 -27 -32 -10 -18 -21 -35 -25 -38 -4 -3 -32 -43 -63 -90 -31
-47 -75 -110 -97 -140 -22 -30 -45 -64 -50 -75 -5 -11 -28 -45 -50 -75 -23
-30 -62 -86 -87 -125 -26 -38 -53 -76 -60 -83 -7 -7 -13 -17 -13 -22 0 -5 -6
-15 -13 -22 -20 -20 -147 -209 -147 -218 0 -5 -4 -10 -8 -12 -8 -3 -83 -110
-196 -277 -28 -42 -53 -78 -56 -81 -16 -15 -83 -121 -79 -124 2 -3 29 18 59
45 30 27 58 49 63 49 4 0 5 5 2 10 -3 6 -2 10 4 10 5 0 21 10 34 22 14 13 53
48 87 78 34 30 78 70 96 88 19 17 36 32 38 32 3 0 22 17 44 37 21 21 61 57 88
81 46 40 117 103 194 171 19 17 38 31 43 31 4 0 5 4 2 10 -3 5 -3 10 2 10 8 0
28 17 157 133 38 34 78 70 90 80 19 17 145 128 170 152 6 6 52 46 101 89 50
44 100 89 111 100 12 12 50 46 84 76 35 30 71 62 80 70 9 8 45 40 79 70 35 30
83 73 106 95 24 22 57 51 72 65 16 14 67 59 113 100 46 41 109 98 140 125 31
28 82 74 114 103 33 29 61 51 63 48 2 -2 -3 -20 -11 -40 -8 -20 -12 -36 -9
-36 3 0 0 -7 -7 -15 -7 -9 -10 -18 -7 -22 4 -3 3 -11 -2 -17 -6 -8 -83 -236
-96 -286 -1 -3 -5 -12 -8 -20 -3 -8 -14 -42 -23 -75 -9 -33 -19 -64 -22 -70
-4 -5 -7 -14 -8 -20 -3 -16 -64 -208 -74 -230 -5 -11 -45 -135 -90 -275 -45
-140 -84 -262 -87 -270 -4 -8 -7 -17 -8 -20 -11 -34 -39 -127 -41 -135 -2 -5
-11 -32 -20 -58 -18 -52 -15 -63 13 -48 17 9 46 20 68 27 6 2 195 76 420 165
226 89 416 162 423 162 6 0 12 5 12 10 0 6 3 8 6 5 3 -4 52 14 110 38 57 24
105 43 107 43 1 0 13 4 27 9 14 6 79 31 145 56 66 26 132 53 148 62 15 8 27
13 27 10 0 -3 26 6 58 20 31 14 65 26 75 27 9 1 17 5 17 9 0 4 3 7 8 6 4 -1
17 3 30 10 12 7 22 10 22 6 0 -3 6 -1 13 5 8 6 17 8 20 4 4 -3 7 -1 7 6 0 7 4
10 9 6 5 -3 12 -1 16 5 4 6 11 8 16 5 5 -4 9 -1 9 4 0 6 7 11 16 11 9 0 30 6
47 14 28 12 61 25 77 31 3 1 14 5 25 10 75 31 372 147 380 149 6 1 16 5 23 9
6 5 17 5 22 2 10 -6 9 -17 -8 -92 -5 -23 -7 -44 -4 -48 3 -3 1 -5 -4 -5 -5 0
-9 -10 -10 -22 -1 -21 -9 -69 -20 -122 -7 -33 -24 -118 -29 -146 -3 -14 -9
-46 -14 -73 -4 -26 -6 -49 -2 -51 3 -2 40 -5 81 -6 41 -1 100 -3 130 -5 85 -4
335 -17 430 -21 47 -2 139 -6 205 -9 66 -4 146 -7 177 -9 l57 -2 -5 70 c-7
101 -11 151 -19 231 -7 70 -12 130 -20 235 -2 30 -4 55 -6 55 -1 0 -2 20 -3
45 -1 25 -4 50 -7 55 -2 6 -4 31 -4 58 1 26 -2 47 -6 47 -7 0 -48 -40 -286
-284 -95 -97 -174 -176 -177 -176 -2 0 5 30 16 68 11 37 21 77 24 89 2 12 9
34 14 48 5 14 7 25 4 25 -4 0 -1 7 6 15 7 8 10 15 7 15 -3 0 1 20 9 45 7 25
10 45 7 45 -3 0 0 7 7 15 7 8 9 15 6 15 -4 0 -2 8 3 18 6 11 12 30 15 44 2 13
17 74 34 134 23 86 83 312 97 369 1 6 4 15 5 20 1 6 6 20 11 33 5 12 11 33 13
45 3 12 8 37 12 55 l7 32 -109 -80 c-60 -44 -116 -86 -124 -93 -8 -7 -56 -41
-105 -76 -50 -36 -93 -69 -96 -74 -4 -5 -9 -5 -12 0 -3 4 6 26 19 48 14 22 32
56 41 75 10 19 23 41 30 48 7 7 13 18 13 23 0 6 17 41 39 77 21 37 52 92 68
122 27 49 73 131 158 285 15 28 48 86 72 130 24 44 48 87 53 95 11 18 69 126
84 157 6 13 15 23 19 23 5 0 5 5 2 10 -3 6 -1 10 4 10 6 0 11 6 11 13 0 7 12
30 26 51 26 38 26 38 3 25 -13 -7 -29 -17 -36 -23 -7 -6 -18 -16 -25 -21 -105
-82 -204 -161 -208 -165 -3 -3 -21 -17 -40 -31 -19 -15 -45 -35 -57 -45 -12
-11 -33 -28 -48 -38 -14 -11 -34 -27 -44 -35 -10 -9 -33 -27 -51 -41 -34 -25
-240 -189 -273 -215 -9 -8 -21 -15 -25 -15 -4 0 -13 -9 -20 -20 -7 -11 -16
-20 -22 -20 -5 0 -26 -16 -47 -35 -21 -19 -41 -35 -45 -35 -4 0 -18 -10 -32
-22 -13 -13 -30 -27 -38 -33 -24 -18 -113 -89 -118 -95 -3 -3 -39 -31 -80 -62
-41 -32 -87 -68 -102 -80 -15 -13 -40 -33 -55 -45 -15 -11 -77 -60 -138 -108
-60 -48 -134 -105 -163 -128 -30 -23 -62 -49 -71 -57 -10 -8 -33 -26 -51 -40
-18 -14 -38 -30 -44 -35 -6 -6 -29 -24 -51 -40 -22 -17 -45 -34 -51 -40 -6 -5
-26 -21 -44 -35 -18 -14 -41 -32 -51 -40 -10 -8 -33 -26 -50 -40 -63 -48 -244
-192 -273 -216 -15 -13 -30 -24 -33 -24 -2 0 -12 -7 -20 -16 -9 -9 -41 -34
-72 -57 -30 -23 -62 -49 -71 -57 -9 -8 -31 -26 -50 -40 -29 -22 -138 -108
-239 -188 -18 -15 -40 -33 -47 -41 -8 -7 -18 -11 -21 -7 -4 3 0 12 9 19 8 6
43 48 78 92 35 44 71 87 79 96 9 9 32 36 51 60 19 24 42 51 50 59 8 9 31 36
50 61 19 24 44 55 56 69 13 14 62 72 109 130 48 58 97 116 108 130 12 14 42
50 67 80 25 30 49 60 55 66 5 7 24 29 42 50 17 22 39 49 50 60 10 12 32 39 48
59 17 21 39 48 50 61 11 13 34 40 50 60 17 20 35 41 40 48 6 6 36 43 68 81 68
83 116 140 137 164 8 9 40 48 71 86 31 39 66 81 77 95 26 29 51 59 100 119 21
24 42 49 47 55 69 74 94 120 67 121 -4 1 -52 23 -107 50 -55 27 -102 49 -105
50 -3 0 -30 13 -61 28 -31 15 -61 27 -67 27 -7 0 -12 3 -12 8 0 4 -15 13 -32
20 -18 8 -69 31 -113 52 -44 21 -127 60 -185 87 -154 73 -184 87 -192 88 -3 0
-9 3 -13 7 -9 9 16 5 33 -5 6 -5 12 -6 12 -3 0 3 16 -2 35 -10 19 -8 37 -14
40 -13 3 0 48 -14 100 -31 52 -17 97 -31 100 -31 3 0 29 -8 57 -18 29 -11 141
-47 248 -81 107 -34 202 -64 210 -67 8 -3 20 -7 25 -8 6 -2 62 -20 125 -40 63
-21 119 -38 125 -39 5 -1 15 -4 20 -7 6 -4 24 -10 40 -14 44 -12 45 -12 50
-15 3 -1 8 -3 13 -5 4 -1 14 -4 22 -7 8 -3 35 -11 60 -19 25 -7 50 -16 55 -20
6 -4 24 -9 40 -11 25 -2 30 0 28 16 -3 36 -13 111 -18 136 -2 13 -7 42 -10 65
-3 22 -8 51 -10 65 -5 29 -16 104 -21 140 -3 25 -21 43 -279 285 -64 61 -154
146 -200 190 -46 44 -106 101 -134 126 -28 26 -117 109 -198 185 -80 77 -160
153 -178 169 -18 17 -101 95 -185 175 -190 181 -191 182 -334 315 -64 61 -148
139 -185 175 -38 36 -119 112 -181 170 -61 58 -137 130 -169 160 -32 30 -117
111 -191 180 -73 69 -154 145 -180 170 -26 25 -107 101 -181 170 -73 69 -159
150 -190 180 -32 30 -110 105 -175 165 -64 61 -138 130 -164 155 -25 25 -60
56 -76 70 l-29 25 25 -30z"/>
<path d="M6970 5594 c0 -3 6 -11 13 -18 6 -7 26 -29 42 -50 127 -159 461 -576
478 -596 12 -14 34 -42 49 -62 15 -20 33 -42 41 -50 7 -7 50 -60 96 -118 46
-58 88 -106 92 -108 5 -2 9 -10 9 -17 0 -7 4 -15 8 -17 4 -1 44 -47 87 -102
64 -79 88 -102 129 -121 28 -12 114 -51 191 -85 77 -34 159 -71 183 -81 23
-10 61 -28 85 -38 77 -34 122 -54 127 -56 3 0 37 -16 75 -34 39 -18 76 -34 83
-34 6 0 12 -4 12 -9 0 -4 3 -7 8 -6 4 1 23 -5 42 -14 131 -60 171 -78 174 -78
2 0 43 -18 90 -40 47 -22 88 -40 90 -40 5 0 100 -43 191 -85 64 -30 166 -75
169 -75 2 0 37 -15 78 -34 92 -42 111 -50 121 -48 4 1 7 -3 7 -8 0 -6 4 -10
10 -10 5 0 34 -11 65 -25 30 -14 57 -25 60 -25 3 0 19 -7 35 -15 49 -25 82
-36 75 -25 -3 6 -11 10 -16 10 -6 0 -36 16 -67 36 -31 21 -57 36 -57 34 0 -2
-25 13 -55 32 -76 48 -365 221 -390 233 -11 5 -20 13 -20 17 0 5 -4 8 -10 8
-13 0 -114 62 -118 72 -2 5 -7 6 -12 3 -4 -3 -13 2 -20 10 -7 8 -19 15 -26 15
-8 0 -14 5 -14 10 0 6 -4 10 -10 10 -5 0 -69 37 -142 81 -73 45 -149 91 -168
101 -19 11 -47 29 -62 39 -14 11 -28 19 -31 19 -3 0 -42 23 -86 50 -44 28 -85
50 -91 50 -5 0 -10 3 -10 8 0 4 -8 12 -19 17 -64 34 -107 59 -111 64 -3 3 -16
12 -29 19 -71 41 -93 53 -165 97 -44 27 -93 62 -111 79 -18 17 -49 45 -69 61
-21 17 -50 41 -65 55 -24 23 -94 83 -161 140 -14 12 -39 34 -55 48 -36 32
-167 146 -209 182 -16 14 -34 30 -40 35 -6 6 -42 37 -81 70 -38 33 -76 67 -85
75 -9 8 -40 35 -70 60 -29 25 -65 56 -80 70 -15 14 -44 39 -64 55 -21 17 -50
41 -65 55 -15 14 -49 44 -75 68 -45 41 -56 48 -56 36z"/>
<path d="M4899 5513 c0 -5 -1 -73 0 -153 0 -122 -3 -152 -19 -188 -10 -23 -16
-42 -12 -42 4 0 2 -4 -3 -8 -6 -4 -24 -29 -39 -56 -15 -26 -37 -57 -47 -67
-10 -10 -16 -19 -13 -19 8 0 -129 -132 -161 -155 -15 -11 -36 -28 -47 -37 -10
-10 -21 -18 -24 -18 -3 0 -20 -11 -38 -25 -18 -14 -36 -25 -40 -25 -5 0 -20
-8 -34 -19 -48 -33 -124 -72 -130 -66 -13 13 99 172 181 257 17 18 15 44 -3
33 -9 -6 -163 -18 -227 -18 -37 0 -134 69 -242 173 l-63 61 -52 -54 c-28 -30
-100 -108 -161 -173 -60 -65 -126 -135 -146 -156 l-37 -36 34 -54 c19 -29 37
-60 41 -68 3 -8 9 -17 13 -20 3 -3 52 -76 109 -162 57 -87 107 -158 110 -158
4 0 23 12 42 26 53 40 174 90 264 110 31 7 84 16 115 20 31 3 32 2 15 -8 -11
-6 -26 -18 -33 -25 -7 -7 -18 -13 -23 -13 -5 0 -9 -7 -9 -15 0 -8 -4 -15 -9
-15 -14 0 -102 -115 -144 -187 -44 -76 -107 -220 -99 -227 15 -16 -23 -3 -56
18 -72 47 -193 182 -232 261 -8 17 -17 32 -21 35 -9 9 -43 85 -41 93 1 4 -2 7
-8 7 -12 0 -4 -237 9 -272 5 -14 7 -28 5 -31 -3 -3 0 -25 6 -48 7 -24 14 -53
16 -64 20 -105 190 -481 233 -515 3 -3 13 -17 21 -31 34 -60 100 -139 101
-121 2 14 6 31 8 35 2 1 4 13 7 27 2 14 7 32 11 40 3 8 7 21 9 28 6 33 81 214
117 287 56 111 169 309 179 313 4 2 8 8 8 13 0 12 101 163 112 167 4 2 8 9 8
15 0 7 10 24 23 39 12 15 45 59 72 98 65 91 119 152 111 125 -3 -11 -8 -40
-10 -65 -3 -25 -8 -63 -11 -85 -16 -111 -21 -98 55 -149 38 -25 72 -46 76 -46
3 0 20 -11 38 -25 18 -14 36 -22 39 -18 4 3 7 1 7 -5 0 -11 36 -35 73 -48 9
-3 17 -10 17 -15 0 -5 5 -9 12 -9 6 0 26 -11 44 -25 18 -14 37 -25 41 -25 5 0
19 -9 31 -20 12 -12 22 -18 22 -14 0 3 7 1 15 -6 13 -10 19 -10 33 4 10 9 21
16 24 16 9 0 132 83 140 95 4 5 8 7 8 4 0 -4 57 31 128 77 70 46 131 85 136
87 4 1 -13 63 -38 137 -25 74 -46 138 -46 142 0 3 47 -6 104 -21 58 -15 102
-23 99 -18 -4 6 -1 7 7 2 19 -11 62 -16 168 -18 50 -1 92 2 92 6 0 5 4 6 8 3
12 -7 132 25 132 36 0 5 4 7 9 4 23 -14 206 142 198 169 -2 5 -14 10 -28 11
-30 1 -89 14 -109 24 -69 32 -156 76 -160 80 -3 3 -38 27 -79 54 -40 27 -78
54 -85 60 -6 6 -36 30 -66 52 -30 23 -65 51 -76 62 -48 46 -34 1 40 -133 21
-38 42 -72 45 -75 9 -7 51 -68 51 -74 0 -18 -171 60 -217 98 -102 87 -175 183
-245 325 -33 68 -36 87 -37 314 l-1 107 -225 0 c-124 0 -225 -3 -226 -7z"/>
<path d="M5555 4024 c-33 -30 -88 -80 -122 -112 l-62 -57 20 -25 c33 -43 170
-214 184 -232 7 -9 30 -39 51 -67 21 -28 39 -49 41 -47 4 4 15 108 17 163 0
24 3 43 5 43 7 0 51 -45 51 -52 0 -5 8 -16 18 -26 9 -10 28 -33 42 -52 14 -18
35 -46 48 -61 12 -15 22 -32 22 -38 0 -6 4 -11 8 -11 4 0 16 -15 27 -32 10
-18 24 -38 29 -45 31 -35 36 -43 29 -43 -4 0 -3 -4 3 -8 10 -6 134 -190 134
-198 0 -2 18 -32 40 -66 22 -35 40 -60 40 -57 0 11 -64 156 -111 252 -11 22
-19 45 -19 53 0 8 -4 14 -10 14 -6 0 -9 3 -8 8 4 10 -191 403 -210 425 -8 9
-12 17 -7 17 4 0 2 6 -4 13 -11 14 -141 228 -141 233 0 2 -12 16 -27 33 l-28
30 -60 -55z"/>
<path d="M4560 4000 c-18 -20 -23 -28 -104 -160 -36 -58 -79 -134 -98 -170
-18 -36 -37 -68 -43 -72 -5 -4 -6 -8 -1 -8 5 0 2 -8 -7 -17 -8 -10 -19 -30
-22 -45 -4 -16 -11 -28 -15 -28 -5 0 -12 -10 -16 -22 -4 -13 -33 -77 -64 -143
-54 -111 -91 -193 -95 -205 0 -3 -12 -27 -25 -55 -13 -27 -24 -52 -25 -55 -4
-11 -26 -63 -35 -83 -9 -20 -9 -20 2 -3 12 17 39 60 93 146 42 68 226 340 245
362 5 7 29 38 52 68 24 30 47 60 53 66 5 6 16 21 24 32 21 30 28 20 31 -40 5
-118 7 -132 18 -136 6 -2 19 9 29 25 10 15 25 35 33 44 8 8 29 33 45 54 17 21
36 44 43 52 7 7 11 13 8 13 -3 0 2 8 12 19 9 10 33 37 52 61 19 23 40 47 46
54 28 31 22 44 -58 117 -44 41 -90 83 -102 94 -51 50 -60 53 -76 35z"/>
<path d="M4977 3574 c-1 -2 -18 -6 -36 -9 -19 -3 -42 -10 -52 -16 -11 -5 -19
-7 -19 -4 0 7 -123 -60 -150 -82 -56 -46 -85 -80 -84 -98 2 -34 16 -56 41 -66
13 -5 162 -11 331 -15 169 -3 361 -7 427 -8 119 -3 156 2 178 27 18 18 19 35
7 73 -10 28 -24 40 -101 79 -49 25 -89 42 -89 39 0 -4 -6 -2 -13 4 -11 10 -82
38 -117 47 -63 15 -100 22 -100 18 0 -3 -6 -1 -12 4 -11 9 -203 15 -211 7z"/>
</g>
</svg>
